# xmcd
#
# Track frame offsets:
#	150
#	15640
#	25157
#	35307
#	49823
#	67159
#	81760
#	104212
#	141273
#	171377
#
# Disc length: 2570 seconds
#
# Revision: 0
# Processed by: cddbd v1.5.1PL0 Copyright (c) Steve Scherf et al.
# Submitted via: dBpowerAMP V4.0
#
DISCID=8c0a080a
DTITLE=Banda El Recodo - En Vivo
DYEAR=2003
DGENRE=banda
TTITLE0=Ya soy feliz
TTITLE1=Me gusta estar contigo
TTITLE2=Besos y Caricias
TTITLE3=Como Pudiste
TTITLE4=Y llegaste tu
TTITLE5=El toro Mambo
TTITLE6=Popurri Ranchero
TTITLE7=Popurri Bohemio
TTITLE8=Popurri Ritmico
TTITLE9=Aca entre nos
EXTD=Banda El Recodo en Vivo desde el Auditorio Nacional
EXTT0=
EXTT1=
EXTT2=
EXTT3=
EXTT4=
EXTT5=
EXTT6=
EXTT7=
EXTT8=
EXTT9=
PLAYORDER=
